<svg xmlns="http://www.w3.org/2000/svg" width="413.719" height="406.199" viewBox="0 0 413.719 406.199"><g transform="translate(-81.655 -296.801)"><path d="M132.6,147.16s78,224.64,176.8,225.68S495.56,147.16,495.56,147.16" transform="translate(-26 151)" fill="none" stroke="#dfc100" stroke-width="2"/><path d="M132.6,147.16s78,224.64,176.8,225.68S495.56,147.16,495.56,147.16" transform="translate(-26 151)" fill="none" stroke="#dfc100" stroke-width="2"/><path d="M132.6,147.16s78,224.64,176.8,225.68S495.56,147.16,495.56,147.16" transform="translate(-26 151)" fill="none" stroke="#dfc100" stroke-width="2"/><path d="M132.6,147.16s78,224.64,176.8,225.68S495.56,147.16,495.56,147.16" transform="translate(-26 151)" fill="none" stroke="#dfc100" stroke-width="2"/><path d="M132.6,147.16s78,224.64,176.8,225.68S495.56,147.16,495.56,147.16" transform="translate(-26 151)" fill="none" stroke="#dfc100" stroke-width="2"/><g transform="translate(280 491)" fill="#fff" stroke="#dfc100" stroke-width="3"><ellipse cx="9" cy="51" rx="9" ry="51" stroke="none"/><ellipse cx="9" cy="51" rx="7.5" ry="49.5" fill="none"/></g><path d="M132.6,147.16s88.5,256.528,200.61,257.716S544.44,147.16,544.44,147.16" transform="translate(-50 151)" fill="rgba(184,46,46,0.69)" stroke="#000" stroke-width="2"/><path d="M132.6,147.16s78,224.64,176.8,225.68S495.56,147.16,495.56,147.16" transform="translate(-26 150)" fill="#fff" stroke="#000" stroke-width="2"/><g transform="translate(229 583)" fill="#daa520" stroke="#3b3500" stroke-width="1"><circle cx="60" cy="60" r="60" stroke="none"/><circle cx="60" cy="60" r="59.5" fill="none"/></g></g></svg>