<svg xmlns="http://www.w3.org/2000/svg" xmlns:xlink="http://www.w3.org/1999/xlink" width="1920" height="545" viewBox="0 0 1920 545"><defs><style>.a{fill:url(#a);}.b{fill:#652d90;}.c,.d{stroke:none;}.d{fill:#707070;}</style><linearGradient id="a" x1="0.901" y1="0.263" x2="0.188" y2="0.532" gradientUnits="objectBoundingBox"><stop offset="0" stop-color="#171717"/><stop offset="1" stop-color="#353535"/></linearGradient></defs><g transform="translate(0 -108)"><rect class="a" width="1920" height="545" transform="translate(0 108)"/><g class="b" transform="translate(808 519.623)"><path class="c" d="M 303.2854614257813 132.8766174316406 L 0.5192437767982483 132.8766174316406 C 0.6087350249290466 130.8856506347656 1.078563094139099 123.2406005859375 3.290660619735718 112.679817199707 C 4.801506996154785 105.4670867919922 6.817430019378662 98.32550811767578 9.282506942749023 91.45354461669922 C 12.36262226104736 82.86704254150391 16.1566219329834 74.67962646484375 20.55912208557129 67.11865997314453 C 31.7590446472168 47.88366317749023 46.91935348510742 32.53458404541016 65.61888885498047 21.49785423278809 C 71.02493286132813 18.3071231842041 76.80365753173828 15.43943119049072 82.79454803466797 12.97443103790283 C 89.10239410400391 10.37900733947754 95.81927490234375 8.158507347106934 102.7586975097656 6.37462329864502 C 110.0390472412109 4.50312328338623 117.7658157348633 3.060353994369507 125.7245101928711 2.086430788040161 C 134.0476989746094 1.067853927612305 142.8557434082031 0.5338154435157776 151.9039611816406 0.4990846514701843 C 152.2123870849609 0.4978923499584198 152.5441284179688 0.4972769618034363 152.8512725830078 0.4972769618034363 C 161.8467712402344 0.4972769618034363 170.6033172607422 1.000046253204346 178.8776245117188 1.991623163223267 C 186.7893524169922 2.939738512039185 194.4703521728516 4.359969139099121 201.7073516845703 6.212777137756348 C 208.6052703857422 7.97881555557251 215.2818603515625 10.18446922302246 221.5515899658203 12.76846885681152 C 227.5061645507813 15.22258472442627 233.2496643066406 18.08219909667969 238.6225891113281 21.26785469055176 C 257.20654296875 32.28654479980469 272.2707824707031 47.65181732177734 283.3968200683594 66.93681335449219 C 287.7697143554688 74.51639556884766 291.5374755859375 82.72739410400391 294.5955810546875 91.34181213378906 C 297.0425415039063 98.23477935791016 299.0430603027344 105.399658203125 300.5415954589844 112.6374664306641 C 302.7340698242188 123.2270355224609 303.1974487304688 130.8842620849609 303.2854614257813 132.8766174316406 Z"/><path class="d" d="M 152.8512725830078 0.997283935546875 C 152.5447692871094 0.997283935546875 152.2136993408203 0.997894287109375 151.9058837890625 0.99908447265625 C 142.8803863525391 1.033737182617188 134.0950012207031 1.566162109375 125.7938537597656 2.5816650390625 C 117.8589630126953 3.552322387695313 110.1557769775391 4.990081787109375 102.8982696533203 6.855010986328125 C 95.98284912109375 8.632049560546875 89.28958129882813 10.84378051757813 83.00434875488281 13.42877960205078 C 77.03651428222656 15.88323974609375 71.28019714355469 18.73851013183594 65.89530944824219 21.91527557373047 C 47.27151489257813 32.90227508544922 32.17044067382813 48.18377685546875 21.01153564453125 67.33531188964844 C 16.62265014648438 74.86781311035156 12.83975219726563 83.025390625 9.767852783203125 91.58139038085938 C 7.308349609375 98.43181610107422 5.296539306640625 105.5515823364258 3.788299560546875 112.7429656982422 C 1.73736572265625 122.5219345092773 1.185150146484375 129.7955780029297 1.044769287109375 132.3766174316406 L 302.7601928710938 132.3766174316406 C 302.6214599609375 129.7886962890625 302.07421875 122.4818572998047 300.0358581542969 112.6611633300781 C 298.5377807617188 105.4434661865234 296.5391845703125 98.29969787597656 294.0956115722656 91.42823791503906 C 291.0436706542969 82.84597015380859 287.2849731445313 74.66674041748047 282.9239196777344 67.11773681640625 C 271.8363952636719 47.92520141601563 256.830810546875 32.63508605957031 238.323974609375 21.67212677001953 C 232.9730834960938 18.50243377685547 227.2530822753906 15.65704345703125 221.3228149414063 13.21500396728516 C 215.0771179199219 10.64308166503906 208.4258880615234 8.447662353515625 201.5538177490234 6.689620971679688 C 194.3417358398438 4.844619750976563 186.6866607666016 3.43035888671875 178.8012390136719 2.486053466796875 C 170.5516967773438 1.4981689453125 161.8208465576172 0.997283935546875 152.8512725830078 0.997283935546875 M 152.8512725830078 -0.00274658203125 C 300.8568725585938 -0.00274658203125 303.8043212890625 133.3766174316406 303.8043212890625 133.3766174316406 L 0 133.3766174316406 C 0 133.3766174316406 2.9835205078125 0.5706939697265625 151.9020385742188 -0.00091552734375 C 152.2110748291016 -0.002105712890625 152.5435028076172 -0.00274658203125 152.8512725830078 -0.00274658203125 Z"/></g></g></svg>