<svg xmlns="http://www.w3.org/2000/svg" xmlns:xlink="http://www.w3.org/1999/xlink" width="1920" height="687.271" viewBox="0 0 1920 687.271"><defs><style>.a{fill:url(#a);}.b{fill:url(#b);}.c,.d{stroke:none;}.d{fill:#707070;}</style><linearGradient id="a" x1="0.5" y1="0.151" x2="0.5" y2="0.976" gradientUnits="objectBoundingBox"><stop offset="0" stop-color="#fff"/><stop offset="0.378" stop-color="#f0f0f0"/><stop offset="1" stop-color="#f4f4f4"/></linearGradient><radialGradient id="b" cx="0.5" cy="0.5" r="0.567" gradientTransform="translate(0 -0.169) scale(1 1.339)" gradientUnits="objectBoundingBox"><stop offset="0" stop-color="#7f2bc3"/><stop offset="1" stop-color="#401662"/></radialGradient></defs><g transform="translate(0 -108)"><rect class="a" width="1920" height="687" transform="translate(0 108)"/><g class="b" transform="translate(0 514)"><path class="c" d="M 966.44775390625 280.76416015625 L 0.49993896484375 126.5735244750977 L 0.49993896484375 -174.8351135253906 L 158.8608856201172 16.99819946289063 L 158.9663696289063 17.12629508972168 L 159.1277923583984 17.16558074951172 L 966.3294677734375 214.2836761474609 L 966.4501953125 214.3132019042969 L 966.5708618164063 214.2827301025391 L 1744.973266601563 17.16462898254395 L 1745.119262695313 17.12748527526855 L 1745.220703125 17.01605606079102 L 1919.5 -174.9314270019531 L 1919.5 126.5745239257813 L 966.44775390625 280.76416015625 Z"/><path class="d" d="M 1919 -173.6370239257813 L 1745.590942382813 17.35201263427734 L 1745.388061523438 17.57534027099609 L 1745.095947265625 17.64915466308594 L 966.6934814453125 214.7672424316406 L 966.4523315429688 214.8284301757813 L 966.2108764648438 214.7693939208984 L 159.00927734375 17.65129852294922 L 158.6866455078125 17.57248687744141 L 158.4752197265625 17.31653594970703 L 0.9998779296875 -173.44384765625 L 0.9998779296875 126.1471862792969 L 966.4466552734375 280.2578125 L 1919 126.1488952636719 L 1919 -173.6370239257813 M -0.0001220703125 -176.22607421875 L 159.246337890625 16.67986297607422 L 966.4480590820313 213.7979583740234 L 1744.850463867188 16.67986297607422 L 1920 -176.22607421875 L 1920 127.0001068115234 L 966.4480590820313 281.2705688476563 L -0.0001220703125 127.0001068115234 L -0.0001220703125 -176.22607421875 Z"/></g></g></svg>