<svg xmlns="http://www.w3.org/2000/svg" width="300.1" height="200" viewBox="0 0 300.1 200">
  <defs>
    <style>
      .cls-1 {
        fill: #652d92;
        stroke-linejoin: round;
      }

      .cls-2 {
        fill: #fff;
        font-size: 70px;
        font-family: SegoeUI, Segoe UI;
      }

      .cls-3, .cls-4 {
        stroke: none;
      }

      .cls-4 {
        fill: #707070;
      }
    </style>
  </defs>
  <g id="Group_1" data-name="Group 1" transform="translate(-5 3.991)">
    <g id="Path_2" data-name="Path 2" class="cls-1" transform="translate(5 -4)">
      <path class="cls-3" d="M 299.5027465820313 199.5087890625 L 66.00001525878906 199.5087890625 L 0.5000170469284058 199.5087890625 L 0.5000170469284058 0.5087966918945313 L 66.00001525878906 0.5087966918945313 L 299.5964660644531 0.5087966918945313 L 299.5631408691406 4.823912143707275 L 299.5038452148438 12.4999885559082 L 66.00001525878906 12.4999885559082 L 65.50001525878906 12.4999885559082 L 65.50001525878906 12.9999885559082 L 65.50001525878906 181.6575622558594 L 65.50001525878906 182.1575622558594 L 66.00001525878906 182.1575622558594 L 299.5976257324219 182.1575622558594 L 299.5027465820313 199.5087890625 Z"/>
      <path class="cls-4" d="M 0.999969482421875 1.008804321289063 L 0.999969482421875 199.0087890625 L 65.99998474121094 199.0087890625 L 299.0054321289063 199.0087890625 L 299.0948181152344 182.6575622558594 L 65.99998474121094 182.6575622558594 C 65.44770812988281 182.6575622558594 64.99998474121094 182.2098388671875 64.99998474121094 181.6575622558594 L 64.99998474121094 12.99998474121094 C 64.99998474121094 12.44772338867188 65.44770812988281 11.99998474121094 65.99998474121094 11.99998474121094 L 299.0076904296875 11.99998474121094 L 299.0631408691406 4.819992065429688 L 299.0925903320313 1.008804321289063 L 65.99998474121094 1.008804321289063 L 0.999969482421875 1.008804321289063 M -3.0517578125e-05 0.0088043212890625 L 65.99998474121094 0.0088043212890625 L 300.1003112792969 0.0088043212890625 C 300.1003112792969 0.0088043212890625 300.0881958007813 1.5799560546875 300.0630798339844 4.827713012695313 C 300.0380249023438 8.075531005859375 299.9999694824219 12.99998474121094 299.9999694824219 12.99998474121094 L 65.99998474121094 12.99998474121094 L 65.99998474121094 181.6575622558594 L 300.1003112792969 181.6575622558594 L 299.9999694824219 200.0087890625 L 65.99998474121094 200.0087890625 L -3.0517578125e-05 200.0087890625 L -3.0517578125e-05 0.0088043212890625 Z"/>
    </g>
    <text id="_1" data-name="1" class="cls-2" transform="translate(19 111)"><tspan x="0" y="0">1</tspan></text>
  </g>
</svg>
