<svg xmlns="http://www.w3.org/2000/svg" width="1916.667" height="955.667" viewBox="0 0 1916.667 955.667"><defs><style>.a{fill:#652d92;}.b,.c{stroke:none;}.c{fill:#707070;}</style></defs><g class="a" transform="translate(1002.667)"><path class="b" d="M 913.4999389648438 955.1666870117188 L -4.069010537932627e-05 955.1666870117188 L -1002.166687011719 955.1666870117188 L -1002.166687011719 512.6658325195313 L -652.8876342773438 734.5521240234375 L -652.7866821289063 734.6162109375 L -652.6676635742188 734.6276245117188 L 100.5530548095703 807.3524169921875 L 100.7866287231445 807.375 L 100.9532928466797 807.2097778320313 L 913.4999389648438 1.200297236442566 L 913.4999389648438 11.54191493988037 L 913.4999389648438 955.1666870117188 Z"/><path class="c" d="M 912.9999389648438 2.40057373046875 L 101.3054351806641 807.5647583007813 L 100.9721069335938 807.895263671875 L 100.5049591064453 807.8502197265625 L -652.7157592773438 735.12548828125 L -652.953857421875 735.1024169921875 L -653.15576171875 734.9740600585938 L -1001.666687011719 513.57568359375 L -1001.666687011719 954.6666870117188 L -3.814697265625e-05 954.6666870117188 L 912.9999389648438 954.6666870117188 L 912.9999389648438 11.54193115234375 L 912.9999389648438 2.40057373046875 M 913.9999389648438 0 L 913.9999389648438 11.54193115234375 L 913.9999389648438 955.6666870117188 L -3.814697265625e-05 955.6666870117188 L -1002.666687011719 955.6666870117188 L -1002.666687011719 511.7557373046875 L -652.6195678710938 734.1300048828125 L 100.6011505126953 806.854736328125 L 913.9999389648438 0 Z"/></g></svg>