<svg xmlns="http://www.w3.org/2000/svg" xmlns:xlink="http://www.w3.org/1999/xlink" width="1920" height="525" viewBox="0 0 1920 525">
    <defs>
        <linearGradient id="a" x1="0.5" x2="0.5" y2="1" gradientUnits="objectBoundingBox">
            <stop offset="0" stop-color="#0ccd3f"/>
            <stop offset="1" stop-color="#066720"/>
        </linearGradient>
    </defs>
    <g transform="translate(0 -108)">
        <rect width="1920" height="525" transform="translate(0 108)" style="fill:#fafafa"/>
        <g transform="translate(695 108)" style="fill:url(#a)">
            <path d="M -693.4691772460938 309.6605224609375 L -693.4691772460938 0.5001064538955688 L 264.3374633789063 0.5001064538955688 L 1224.499877929688 0.5001064538955688 L 1224.499877929688 309.5193786621094 L 1191.694091796875 245.9586791992188 L 1091.102416992188 51.06415557861328 L 1090.962646484375 50.79343795776367 L 1090.658203125 50.79343795776367 L -548.314453125 50.79343795776367 L -548.6075439453125 50.79343795776367 L -548.7508544921875 51.04915237426758 L -693.4691772460938 309.6605224609375 Z" style="stroke:none"/>
            <path d="M -692.96923828125 1.000091552734375 L -692.96923828125 307.7434997558594 L -549.187255859375 50.80511474609375 L -548.901123046875 50.29342651367188 L -548.314697265625 50.29342651367188 L 1090.658203125 50.29342651367188 L 1091.267456054688 50.29342651367188 L 1091.546752929688 50.83486938476563 L 1192.138427734375 245.7294006347656 L 1223.999755859375 307.4605407714844 L 1223.999755859375 1.000091552734375 L 264.3374633789063 1.000091552734375 L -692.96923828125 1.000091552734375 M -693.96923828125 9.1552734375e-05 L 264.3374633789063 9.1552734375e-05 L 1224.999755859375 9.1552734375e-05 L 1224.999755859375 311.5782165527344 L 1191.249755859375 246.1879577636719 L 1090.658203125 51.29342651367188 L -548.314697265625 51.29342651367188 L -693.96923828125 311.5782165527344 L -693.96923828125 9.1552734375e-05 Z" style="fill:#707070;stroke:none"/>
        </g>
    </g>
</svg>
