<svg xmlns="http://www.w3.org/2000/svg" xmlns:xlink="http://www.w3.org/1999/xlink" width="1920" height="530.197" viewBox="0 0 1920 530.197"><defs><style>.a{fill:url(#a);}.b{fill:rgba(255,255,255,0.14);}.c,.d{stroke:none;}.d{fill:#707070;}</style><linearGradient id="a" x1="0.678" y1="0.212" x2="0.296" y2="0.865" gradientUnits="objectBoundingBox"><stop offset="0" stop-color="#8840d8"/><stop offset="1" stop-color="#7100d5"/></linearGradient></defs><g transform="translate(0 -102.803)"><rect class="a" width="1920" height="525" transform="translate(0 108)"/><g class="b" transform="translate(681 490)"><path class="c" d="M 67.78500366210938 99.50000762939453 L 7.215000152587891 99.50000762939453 C 5.717447280883789 99.50000762939453 4.369341373443604 98.7940673828125 3.516341209411621 97.56318664550781 C 2.663341283798218 96.33229827880859 2.475694179534912 94.82215118408203 3.001517534255981 93.41994476318359 L 33.28651809692383 12.65995979309082 C 34.09384536743164 10.50707721710205 35.99241256713867 9.740006446838379 37.5 9.740006446838379 C 39.00757598876953 9.740006446838379 40.90615463256836 10.50707721710205 41.71348190307617 12.65995979309082 L 71.99848175048828 93.41994476318359 C 72.52430725097656 94.82215118408203 72.336669921875 96.33229827880859 71.48367309570313 97.56318664550781 C 70.63066864013672 98.7940673828125 69.28255462646484 99.50000762939453 67.78500366210938 99.50000762939453 Z"/><path class="d" d="M 37.5 10.24000549316406 C 36.1599235534668 10.24000549316406 34.4723014831543 10.92183685302734 33.75467681884766 12.83551788330078 L 3.469673156738281 93.59550476074219 C 3.002273559570313 94.84191131591797 3.169075012207031 96.18428039550781 3.927299499511719 97.27838897705078 C 4.685523986816406 98.37250518798828 5.883834838867188 99 7.214996337890625 99 L 67.78500366210938 99 C 69.11616516113281 99 70.31447601318359 98.37250518798828 71.07270050048828 97.27837371826172 C 71.83090972900391 96.18426513671875 71.99771118164063 94.84191131591797 71.53031158447266 93.59550476074219 L 41.24532318115234 12.83551788330078 C 40.52768707275391 10.92183685302734 38.8400764465332 10.24000549316406 37.5 10.24000549316406 M 37.49999618530273 9.240005493164063 C 39.43527221679688 9.240005493164063 41.37054824829102 10.32146453857422 42.18164825439453 12.48439025878906 L 72.46663665771484 93.24437713623047 C 73.69242858886719 96.51313781738281 71.27602386474609 100 67.78500366210938 100 L 7.214996337890625 100 C 3.723960876464844 100 1.307571411132813 96.51313781738281 2.533348083496094 93.24437713623047 L 32.81835174560547 12.48439025878906 C 33.62944412231445 10.32146453857422 35.56472015380859 9.240005493164063 37.49999618530273 9.240005493164063 Z"/></g><g class="b" transform="matrix(0.755, -0.656, 0.656, 0.755, 1095.272, 173.002)"><path class="c" d="M 97.70534515380859 80.5 L 9.294652938842773 80.5 C 7.610866546630859 80.5 6.129373550415039 79.61472320556641 5.331679821014404 78.13186645507813 C 4.533986568450928 76.64900207519531 4.611773490905762 74.92491149902344 5.539773464202881 73.51991271972656 L 49.74509429931641 6.592202663421631 C 50.58049392700195 5.327389240264893 51.98418807983398 4.572282791137695 53.4999885559082 4.572282791137695 C 55.01577377319336 4.572282791137695 56.41946792602539 5.327389240264893 57.25486755371094 6.592202663421631 L 101.4602432250977 73.51991271972656 C 102.3882293701172 74.92491149902344 102.4660110473633 76.64900207519531 101.6683197021484 78.13185882568359 C 100.8706283569336 79.61470794677734 99.38914489746094 80.5 97.70534515380859 80.5 Z"/><path class="d" d="M 53.4999885559082 5.072280883789063 C 52.13249206542969 5.072280883789063 50.91595840454102 5.726707458496094 50.16229248046875 6.867759704589844 L 5.95697021484375 73.79548645019531 C 5.132080078125 75.04436492919922 5.062950134277344 76.57689666748047 5.772003173828125 77.89498901367188 C 6.481063842773438 79.21308135986328 7.797943115234375 80 9.294654846191406 80 L 97.70534515380859 80 C 99.20205688476563 80 100.5189208984375 79.21308135986328 101.2279891967773 77.89498901367188 C 101.9370498657227 76.57689666748047 101.8679046630859 75.04436492919922 101.0430374145508 73.79548645019531 L 56.83765411376953 6.867759704589844 C 56.08399963378906 5.726707458496094 54.86746597290039 5.072280883789063 53.4999885559082 5.072280883789063 M 53.49998474121094 4.072280883789063 C 55.0919075012207 4.072280883789063 56.6838264465332 4.820396423339844 57.67208099365234 6.316627502441406 L 101.8774566650391 73.24434661865234 C 104.0730133056641 76.56849670410156 101.6891174316406 81 97.70534515380859 81 L 9.294654846191406 81 C 5.310867309570313 81 2.926971435546875 76.56849670410156 5.122543334960938 73.24434661865234 L 49.327880859375 6.316627502441406 C 50.31613922119141 4.820396423339844 51.90806198120117 4.072280883789063 53.49998474121094 4.072280883789063 Z"/></g><g class="b" transform="matrix(0.914, 0.407, -0.407, 0.914, 128.692, 197.582)"><path class="c" d="M 49.7111701965332 54.5 L 8.288829803466797 54.5 C 6.697840213775635 54.5 5.25738000869751 53.68667221069336 4.435599803924561 52.3243522644043 C 3.61382007598877 50.96203231811523 3.566220045089722 49.30850219726563 4.30826997756958 47.90117263793945 L 25.01943016052246 8.62135124206543 C 25.81220054626465 7.117831707000732 27.30026054382324 6.22020149230957 29 6.22020149230957 C 30.69972991943359 6.22020149230957 32.18778991699219 7.117831707000732 32.98056030273438 8.62135124206543 L 53.69173049926758 47.90116119384766 C 54.43378067016602 49.30850219726563 54.38618087768555 50.96203231811523 53.56439971923828 52.3243522644043 C 52.74261856079102 53.68667221069336 51.30215835571289 54.5 49.7111701965332 54.5 Z"/><path class="d" d="M 28.99999046325684 6.720203399658203 C 27.48911094665527 6.720203399658203 26.16640090942383 7.518093109130859 25.46171951293945 8.854560852050781 L 4.75054931640625 48.13437271118164 C 4.090950012207031 49.38534164428711 4.133258819580078 50.85514068603516 4.863739013671875 52.06609344482422 C 5.594211578369141 53.27704238891602 6.874618530273438 54 8.288829803466797 54 L 49.711181640625 53.99999237060547 C 51.12525177001953 53.99999237060547 52.40559005737305 53.27699279785156 53.1361083984375 52.06597137451172 C 53.86661148071289 50.85497283935547 53.90898132324219 49.38521194458008 53.24943923950195 48.13437271118164 L 32.53826904296875 8.854560852050781 C 31.83358955383301 7.518093109130859 30.51086044311523 6.720203399658203 28.99999046325684 6.720203399658203 M 28.9999942779541 5.720199584960938 C 30.74250411987305 5.720199584960938 32.48501586914063 6.609516143798828 33.4228401184082 8.388153076171875 L 54.13401031494141 47.66796112060547 C 55.88956451416016 50.9974479675293 53.47499084472656 54.99999237060547 49.71118545532227 54.99999237060547 C 49.71095275878906 54.99999237060547 49.71139907836914 54.99999237060547 49.7111701965332 54.99999237060547 L 8.288829803466797 55 C 4.524631500244141 55 2.110328674316406 50.99765014648438 3.865978240966797 47.66796112060547 L 24.5771484375 8.388153076171875 C 25.51497650146484 6.609516143798828 27.25748443603516 5.720199584960938 28.9999942779541 5.720199584960938 Z"/></g><g class="b" transform="translate(1743.983 283.097) rotate(34)"><path class="c" d="M 64.70364379882813 55.50000381469727 L 9.296369552612305 55.50000381469727 C 7.612420082092285 55.50000381469727 6.13086986541748 54.61459350585938 5.3332200050354 53.13154602050781 C 4.535580158233643 51.64850616455078 4.613570213317871 49.92431640625 5.541860103607178 48.51934432983398 L 33.24549102783203 6.589524745941162 C 34.08092880249023 5.325074672698975 35.48448181152344 4.570174694061279 37 4.570174694061279 C 38.51551055908203 4.570174694061279 39.91907119750977 5.325074672698975 40.75450134277344 6.58951473236084 L 68.45813751220703 48.51934432983398 C 69.38642883300781 49.92432403564453 69.46441650390625 51.64851379394531 68.66677093505859 53.13156509399414 C 67.86913299560547 54.61460494995117 66.38758087158203 55.50000381469727 64.70364379882813 55.50000381469727 Z"/><path class="d" d="M 36.9999885559082 5.070163726806641 C 35.63275909423828 5.070163726806641 34.41635131835938 5.724403381347656 33.66265869140625 6.865142822265625 L 5.959022521972656 48.79497528076172 C 5.133880615234375 50.0438346862793 5.064552307128906 51.57644653320313 5.773567199707031 52.89470672607422 C 6.482589721679688 54.21297454833984 7.799522399902344 54.99999618530273 9.296356201171875 54.99999618530273 L 64.70362854003906 54.99999618530273 C 66.20046997070313 54.99999618530273 67.51741027832031 54.21297454833984 68.22643280029297 52.89470672607422 C 68.93544769287109 51.57644653320313 68.86611938476563 50.0438346862793 68.04096984863281 48.79497528076172 L 40.33732986450195 6.865142822265625 C 39.58364105224609 5.724403381347656 38.36722183227539 5.070163726806641 36.9999885559082 5.070163726806641 M 36.99999618530273 4.070171356201172 C 38.59168243408203 4.070171356201172 40.18336868286133 4.818073272705078 41.17166900634766 6.313884735107422 L 68.87531280517578 48.24371337890625 C 71.07158660888672 51.56780624389648 68.68775939941406 55.99999618530273 64.70362854003906 55.99999618530273 L 9.296356201171875 55.99999618530273 C 5.312240600585938 55.99999618530273 2.928413391113281 51.56780624389648 5.124687194824219 48.24371337890625 L 32.82831954956055 6.313884735107422 C 33.81661987304688 4.818073272705078 35.40830612182617 4.070171356201172 36.99999618530273 4.070171356201172 Z"/></g><g class="b" transform="translate(1392.891 540.742) rotate(-39)"><path class="c" d="M 134.4138488769531 62.5 L 13.58613300323486 62.5 C 11.27178287506104 62.5 9.887149810791016 60.9782829284668 9.36305046081543 59.55419921875 C 8.838950157165527 58.13010025024414 8.906816482543945 56.07381820678711 10.66903305053711 54.57355117797852 L 71.08286285400391 3.14013409614563 C 71.89603424072266 2.447834014892578 72.93201446533203 2.06658411026001 73.99996948242188 2.06658411026001 C 75.06791687011719 2.06658411026001 76.10389709472656 2.447834014892578 76.91708374023438 3.14013409614563 L 137.3309783935547 54.57355117797852 C 139.0932006835938 56.07381820678711 139.1610565185547 58.13008499145508 138.6369476318359 59.55418395996094 C 138.1128540039063 60.9782829284668 136.7282104492188 62.5 134.4138488769531 62.5 Z"/><path class="d" d="M 73.99996185302734 2.56658935546875 C 73.05065155029297 2.56658935546875 72.12979888916016 2.905479431152344 71.40699768066406 3.520862579345703 L 10.9931640625 54.95428085327148 C 9.426727294921875 56.28786087036133 9.366424560546875 58.11564254760742 9.832290649414063 59.38151550292969 C 10.29814147949219 60.64736938476563 11.5289306640625 61.9999885559082 13.58612060546875 61.9999885559082 L 134.4138793945313 61.9999885559082 C 136.4708404541016 61.9999885559082 137.7015686035156 60.64728164672852 138.1674499511719 59.38135147094727 C 138.6333312988281 58.11546325683594 138.5730895996094 56.28769683837891 137.0068511962891 54.95428085327148 L 76.59296417236328 3.520862579345703 C 75.87014770507813 2.905479431152344 74.94925689697266 2.56658935546875 73.99996185302734 2.56658935546875 M 73.99996948242188 1.566585540771484 C 75.15354156494141 1.566585540771484 76.30712127685547 1.964199066162109 77.24120330810547 2.759426116943359 L 137.6550903320313 54.19284439086914 C 141.1957702636719 57.20720672607422 139.0636138916016 62.9999885559082 134.4138793945313 62.9999885559082 C 134.4135894775391 62.9999885559082 134.4141387939453 62.9999885559082 134.4138488769531 62.9999885559082 L 13.58612060546875 62.9999885559082 C 8.935821533203125 63.00000762939453 6.80401611328125 57.20738983154297 10.34490966796875 54.19284439086914 L 70.75874328613281 2.759426116943359 C 71.69281768798828 1.964199066162109 72.84638977050781 1.566585540771484 73.99996948242188 1.566585540771484 Z"/></g><g class="b" transform="translate(706.487 296.592) rotate(19)"><path class="c" d="M 142.5035705566406 36.50000381469727 L 23.49642562866211 36.50000381469727 C 22.35484313964844 36.50000381469727 21.33159255981445 36.13273620605469 20.53732490539551 35.43790435791016 C 19.81620979309082 34.80705261230469 19.30397605895996 33.91875457763672 19.0949764251709 32.93661880493164 C 18.8859748840332 31.95448684692383 18.99215888977051 30.9345874786377 19.39394187927246 30.06480407714844 C 19.83649253845215 29.10676956176758 20.62152481079102 28.35470390319824 21.66420936584473 27.8899040222168 L 81.16776275634766 1.364203214645386 C 81.74810791015625 1.105486512184143 82.36457824707031 0.9743032455444336 82.99997711181641 0.9743032455444336 C 83.63539123535156 0.9743032455444336 84.25183868408203 1.105486512184143 84.83219146728516 1.364203214645386 L 144.3357849121094 27.8899040222168 C 145.3784790039063 28.35470390319824 146.1635131835938 29.10676956176758 146.6060485839844 30.06480407714844 C 147.0078430175781 30.9345874786377 147.114013671875 31.95448684692383 146.9050140380859 32.93661880493164 C 146.6960296630859 33.91875457763672 146.1837768554688 34.80705261230469 145.4626617431641 35.43790435791016 C 144.6683959960938 36.13273620605469 143.6451568603516 36.50000381469727 142.5035705566406 36.50000381469727 Z"/><path class="d" d="M 82.99997711181641 1.474300384521484 C 82.43515777587891 1.474300384521484 81.88720703125 1.590900421142578 81.371337890625 1.820880889892578 L 21.86776733398438 28.34657096862793 C 19.68463134765625 29.31978988647461 19.27308654785156 31.37138938903809 19.58403015136719 32.83255386352539 C 19.89495849609375 34.29371643066406 21.10617065429688 36.00000762939453 23.49641418457031 36.00000762939453 L 142.5035705566406 36.00000762939453 C 144.8938140869141 36.00000762939453 146.1050262451172 34.29371643066406 146.4159545898438 32.83255386352539 C 146.7268981933594 31.37138938903809 146.3153533935547 29.31978988647461 144.1322021484375 28.34657096862793 L 84.62860870361328 1.82086181640625 C 84.11273956298828 1.590900421142578 83.56478881835938 1.474300384521484 82.99997711181641 1.474300384521484 M 82.99997711181641 0.47430419921875 C 83.69393920898438 0.47430419921875 84.38790130615234 0.6187095642089844 85.03577423095703 0.9075164794921875 L 144.5393676757813 27.43320846557617 C 149.4690093994141 29.63077163696289 147.9008483886719 37.00000762939453 142.5035705566406 37.00000762939453 L 23.49641418457031 37.00000762939453 C 18.09913635253906 37.00000762939453 16.53097534179688 29.63077163696289 21.46061706542969 27.43320846557617 L 80.96417236328125 0.9075164794921875 C 81.61204528808594 0.6187095642089844 82.30600738525391 0.47430419921875 82.99997711181641 0.47430419921875 Z"/></g></g></svg>