<svg xmlns="http://www.w3.org/2000/svg" xmlns:xlink="http://www.w3.org/1999/xlink" width="1995" height="585.5" viewBox="0 0 1995 585.5"><defs><linearGradient id="a" x1="0.516" y1="0.235" x2="0.918" y2="0.893" gradientUnits="objectBoundingBox"><stop offset="0" stop-color="#652d92"/><stop offset="1" stop-color="#331749"/></linearGradient><filter id="b" x="0" y="121.167" width="500" height="464.333" filterUnits="userSpaceOnUse"><feOffset dx="10" dy="14" input="SourceAlpha"/><feGaussianBlur stdDeviation="12.5" result="c"/><feFlood flood-opacity="0.161"/><feComposite operator="in" in2="c"/><feComposite in="SourceGraphic"/></filter><linearGradient id="d" x1="0.484" y1="0.235" x2="0.082" y2="0.893" xlink:href="#a"/><filter id="e" x="1495" y="121.167" width="500" height="464.333" filterUnits="userSpaceOnUse"><feOffset dx="10" dy="14" input="SourceAlpha"/><feGaussianBlur stdDeviation="12.5" result="f"/><feFlood flood-opacity="0.161"/><feComposite operator="in" in2="f"/><feComposite in="SourceGraphic"/></filter></defs><g transform="translate(27.5 -115)"><g transform="translate(0 115)" fill="#131313" stroke="#000" stroke-width="1"><rect width="1920" height="534" stroke="none"/><rect x="0.5" y="0.5" width="1919" height="533" fill="none"/></g><g transform="matrix(1, 0, 0, 1, -27.5, 115)" filter="url(#b)"><g transform="translate(27.5 126)" fill="url(#a)"><path d="M 424.4230346679688 407.5 L 178.6295928955078 407.5 C 180.6755523681641 405.6295776367188 185.8296508789063 400.8368225097656 192.6659393310547 393.8994750976563 C 200.8725128173828 385.5716552734375 213.2547149658203 372.3582763671875 225.6395111083984 356.7026062011719 C 247.5388793945313 329.0195007324219 273.6282958984375 288.2362670898438 273.5540771484375 251.1545867919922 C 273.5125732421875 230.4169616699219 265.3627319335938 212.7238616943359 249.3309326171875 198.5668487548828 C 222.1031951904297 174.5231628417969 182.6788330078125 162.3319549560547 132.1530303955078 162.3319549560547 C 96.88466644287109 162.3319549560547 62.78850936889648 168.4499664306641 40.39587783813477 173.5823211669922 C 18.89850425720215 178.5094451904297 3.77825927734375 183.4957885742188 0.4999847412109375 184.6073608398438 L 0.4999847412109375 19.17629241943359 C 2.979140520095825 19.23039817810059 14.40063095092773 19.5530948638916 31.64919471740723 21.1540641784668 C 43.09372329711914 22.21632766723633 54.82614135742188 23.62522315979004 66.52061462402344 25.34148597717285 C 81.13771820068359 27.48674964904785 95.73635101318359 30.12106513977051 109.9109344482422 33.17132949829102 C 145.9858245849609 40.93437957763672 179.5649261474609 51.40517044067383 209.7155151367188 64.29290771484375 C 227.6129302978516 71.943115234375 244.4852447509766 80.541015625 259.86376953125 89.84780120849609 C 268.1282348632813 94.84932708740234 276.1242065429688 100.1550674438477 283.62939453125 105.6175918579102 C 291.4747619628906 111.3276977539063 299.0019226074219 117.367805480957 306.001708984375 123.570068359375 C 311.4771423339844 128.4216918945313 316.9088134765625 133.9116516113281 322.1459350585938 139.8873291015625 C 327.1573486328125 145.6055450439453 332.1237182617188 151.9204864501953 336.9070434570313 158.6566925048828 C 345.8099975585938 171.1944885253906 354.4071960449219 185.6494293212891 362.4598693847656 201.6200714111328 C 376.0280456542969 228.529541015625 388.3197326660156 260.1812133789063 398.9934692382813 295.6960144042969 C 403.1874084472656 309.650634765625 407.1384582519531 324.2423400878906 410.73681640625 339.0657043457031 C 413.6155700683594 350.9246520996094 416.2763061523438 362.9575500488281 418.6450805664063 374.8300170898438 C 422.2021789550781 392.6583862304688 424.0293579101563 404.7973327636719 424.4230346679688 407.5 Z" stroke="none"/><path d="M 0.999969482421875 19.688232421875 L 0.999969482421875 183.9115753173828 C 5.34100341796875 182.4607696533203 19.97247314453125 177.7503662109375 40.28414916992188 173.0949554443359 C 62.70199584960938 167.956787109375 96.837890625 161.8319702148438 132.1530456542969 161.8319702148438 C 182.8043518066406 161.8319702148438 222.3400421142578 174.0652770996094 249.6618804931641 198.1920623779297 C 265.8055419921875 212.4478607177734 274.0122985839844 230.2666931152344 274.0540771484375 251.1535949707031 C 274.1286010742188 288.3794555664063 247.9804077148438 329.2672729492188 226.0316162109375 357.0128173828125 C 213.6328735351563 372.6861267089844 201.2373504638672 385.9137573242188 193.0220947265625 394.2504272460938 C 187.0619049072266 400.2987060546875 182.3767547607422 404.7207336425781 179.9118194580078 407 L 423.8441467285156 407 C 423.3148193359375 403.4296569824219 421.4986572265625 391.6847229003906 418.1491394042969 374.8998107910156 C 415.7810363769531 363.0328063964844 413.1211853027344 351.005859375 410.2434692382813 339.1530151367188 C 406.6468200683594 324.3390197753906 402.6978149414063 309.7570190429688 398.5061950683594 295.8119506835938 C 387.8409729003906 260.3302612304688 375.5606689453125 228.7106475830078 362.0064086914063 201.8313293457031 C 353.9657592773438 185.8860626220703 345.382568359375 171.4553833007813 336.4950866699219 158.940185546875 C 331.7221984863281 152.2190551757813 326.7671508789063 145.9187622070313 321.767578125 140.2142639160156 C 316.5450439453125 134.2553405761719 311.1290283203125 128.7813720703125 305.6701049804688 123.9443664550781 C 298.6830444335938 117.7533264160156 291.1693725585938 111.7239685058594 283.3378295898438 106.0238037109375 C 275.8448791503906 100.5701293945313 267.8618774414063 95.27279663085938 259.6104736328125 90.27896118164063 C 244.253662109375 80.98495483398438 227.4044036865234 72.39837646484375 209.5306701660156 64.7576904296875 C 179.4125061035156 51.8828125 145.8673400878906 41.42160034179688 109.8270874023438 33.66476440429688 C 95.663818359375 30.61639404296875 81.07666015625 27.983642578125 66.47073364257813 25.83953857421875 C 54.78445434570313 24.1240234375 43.06008911132813 22.71575927734375 31.623291015625 21.65380859375 C 15.36248779296875 20.14398193359375 4.28350830078125 19.77108764648438 0.999969482421875 19.688232421875 M -3.0517578125e-05 18.66665649414063 C -3.0517578125e-05 18.66665649414063 191.2081909179688 21.18695068359375 306.3333129882813 123.1958923339844 C 396.4816589355469 203.0736389160156 425 408 425 408 L 177.3332977294922 408 C 177.3332977294922 408 330.9166259765625 271.2788696289063 248.9999847412109 198.941650390625 C 217.7712554931641 171.3648529052734 174.1610107421875 162.8319702148438 132.153076171875 162.8319702148438 C 63.96917724609375 162.8319702148438 -3.0517578125e-05 185.3073883056641 -3.0517578125e-05 185.3073883056641 L -3.0517578125e-05 18.66665649414063 Z" stroke="none" fill="#707070"/></g></g><g transform="matrix(1, 0, 0, 1, -27.5, 115)" filter="url(#e)"><g transform="translate(1522.5 126)" fill="url(#d)"><path d="M 246.370361328125 407.5 L 0.576911449432373 407.5 C 0.9707129001617432 404.7966613769531 2.799096345901489 392.6500244140625 6.357653617858887 374.8159484863281 C 8.72675895690918 362.9429016113281 11.3878116607666 350.9095764160156 14.26686382293701 339.0503234863281 C 17.86544227600098 324.2273254394531 21.81660079956055 309.6361083984375 26.01070594787598 295.6820068359375 C 36.68439102172852 260.1698608398438 48.97581100463867 228.5204925537109 62.54360198974609 201.6131134033203 C 70.59586334228516 185.6440124511719 79.19260406494141 171.1903839111328 88.09507751464844 158.6536407470703 C 92.87807464599609 151.9180603027344 97.84407806396484 145.6037445068359 102.8551788330078 139.8860168457031 C 108.0919189453125 133.9107971191406 113.5232315063477 128.4213256835938 118.9982299804688 123.570068359375 C 125.9980239868164 117.367805480957 133.5251770019531 111.3276977539063 141.3705444335938 105.6175918579102 C 148.8757629394531 100.1550674438477 156.8717041015625 94.84932708740234 165.13623046875 89.84780120849609 C 180.5147094726563 80.541015625 197.3870239257813 71.943115234375 215.2844390869141 64.29290771484375 C 245.4350280761719 51.40517044067383 279.0141906738281 40.93437957763672 315.0890808105469 33.17132949829102 C 329.2636413574219 30.12106513977051 343.8622436523438 27.48674964904785 358.4793395996094 25.34148597717285 C 370.1737976074219 23.62522315979004 381.9062194824219 22.21632766723633 393.3507690429688 21.1540641784668 C 410.5993347167969 19.5530948638916 422.0208129882813 19.23039817810059 424.4999694824219 19.17629241943359 L 424.4999694824219 184.6073608398438 C 421.2217102050781 183.4957885742188 406.1014404296875 178.5094451904297 384.6040649414063 173.5823211669922 C 362.2114562988281 168.4499664306641 328.1152954101563 162.3319549560547 292.846923828125 162.3319549560547 C 242.3211212158203 162.3319549560547 202.8967590332031 174.5231628417969 175.6690216064453 198.5668487548828 C 159.6372375488281 212.7238616943359 151.4873962402344 230.4169616699219 151.4458618164063 251.1545867919922 C 151.3716583251953 288.2362670898438 177.4610748291016 329.0195007324219 199.3604431152344 356.7026062011719 C 211.7452392578125 372.3582763671875 224.12744140625 385.5716552734375 232.3340148925781 393.8994750976563 C 239.1703033447266 400.8368225097656 244.3244018554688 405.6295776367188 246.370361328125 407.5 Z" stroke="none"/><path d="M 423.9999694824219 19.688232421875 C 420.7164611816406 19.77108764648438 409.6374816894531 20.14398193359375 393.3766479492188 21.65380859375 C 381.9398803710938 22.71575927734375 370.2154846191406 24.1240234375 358.5292358398438 25.83953857421875 C 343.92333984375 27.983642578125 329.3361206054688 30.61639404296875 315.1729125976563 33.66476440429688 C 279.1326599121094 41.42160034179688 245.5874938964844 51.8828125 215.4692840576172 64.7576904296875 C 197.5955505371094 72.39837646484375 180.7462310791016 80.98495483398438 165.3894958496094 90.27896118164063 C 157.1380615234375 95.27279663085938 149.155029296875 100.5701293945313 141.6620788574219 106.0238037109375 C 133.8305358886719 111.7239685058594 126.3168640136719 117.7533264160156 119.3298034667969 123.9443664550781 C 113.870849609375 128.7813720703125 108.4548645019531 134.2553405761719 103.2323303222656 140.2142639160156 C 98.23275756835938 145.9187622070313 93.2777099609375 152.2190551757813 88.50485229492188 158.940185546875 C 79.61740112304688 171.4553833007813 71.03411865234375 185.8860626220703 62.99356079101563 201.8313293457031 C 49.43927001953125 228.7106475830078 37.15896606445313 260.3302612304688 26.49374389648438 295.8119506835938 C 22.30206298828125 309.7570190429688 18.35311889648438 324.3390197753906 14.75650024414063 339.1530151367188 C 11.87875366210938 351.005859375 9.218902587890625 363.0328063964844 6.850799560546875 374.8998107910156 C 3.50128173828125 391.6847229003906 1.685150146484375 403.4296569824219 1.15582275390625 407 L 245.088134765625 407 C 242.6231994628906 404.7207336425781 237.9380493164063 400.2987060546875 231.9778594970703 394.2504272460938 C 223.7626037597656 385.9137573242188 211.3670806884766 372.6861267089844 198.9682922363281 357.0128173828125 C 177.0195465087891 329.2672729492188 150.871337890625 288.3794555664063 150.9458618164063 251.1535949707031 C 150.9876403808594 230.2666931152344 159.1943969726563 212.4478607177734 175.3380737304688 198.1920623779297 C 202.6591796875 174.0659027099609 242.1949157714844 161.8325805664063 292.846923828125 161.8319702148438 C 328.1620788574219 161.83154296875 362.2979736328125 167.9564208984375 384.7158203125 173.0946502685547 C 405.0274963378906 177.7501373291016 419.658935546875 182.4607086181641 423.9999694824219 183.9115600585938 L 423.9999694824219 19.688232421875 M 424.9999694824219 18.66665649414063 L 424.9999694824219 185.3073883056641 C 424.9999694824219 185.3073883056641 361.0307922363281 162.8310852050781 292.8468933105469 162.8319702148438 C 250.8389434814453 162.83251953125 207.2286987304688 171.3648529052734 175.9999694824219 198.941650390625 C 94.08328247070313 271.2788696289063 247.6666564941406 408 247.6666564941406 408 L -3.0517578125e-05 408 C -3.0517578125e-05 408 28.51828002929688 203.0736389160156 118.6665954589844 123.1958923339844 C 233.7918090820313 21.18695068359375 424.9999694824219 18.66665649414063 424.9999694824219 18.66665649414063 Z" stroke="none" fill="#707070"/></g></g></g></svg>